<svg xmlns="http://www.w3.org/2000/svg" width="105" height="72" fill="none"><path fill="#fff" d="M0 0h104.28v72H0z"/><g clip-path="url(#a)"><path fill="#232F3E" d="M34.622 29.423c-.027.805.075 1.61.302 2.383.234.662.523 1.303.865 1.917.114.182.179.391.186.606a1.03 1.03 0 0 1-.512.8l-1.682 1.12c-.207.142-.45.224-.702.234a1.115 1.115 0 0 1-.8-.374 6.055 6.055 0 0 1-.959-1.238c-.263-.45-.535-.972-.817-1.564-2.087 2.46-4.703 3.691-7.848 3.691-2.242 0-4.017-.639-5.325-1.916-1.308-1.278-1.962-2.99-1.962-5.139 0-2.27.81-4.1 2.43-5.488 1.619-1.388 3.799-2.081 6.54-2.08.944.003 1.888.074 2.823.212.983.138 2.003.332 3.062.582v-1.96c0-2.025-.42-3.449-1.263-4.27-.841-.823-2.29-1.239-4.345-1.247-.969.003-1.934.12-2.875.35-.975.233-1.931.538-2.862.912a6.96 6.96 0 0 1-.934.35c-.136.04-.277.064-.419.072-.374 0-.56-.28-.56-.84v-1.309a1.733 1.733 0 0 1 .186-.934 1.91 1.91 0 0 1 .748-.56 17.373 17.373 0 0 1 3.363-1.215A16.263 16.263 0 0 1 25.416 12c3.176 0 5.504.724 6.982 2.173 1.48 1.448 2.22 3.636 2.221 6.564l.003 8.686Zm-10.837 4.065a8.565 8.565 0 0 0 2.754-.491 5.793 5.793 0 0 0 2.523-1.706c.431-.49.743-1.072.91-1.703a9.034 9.034 0 0 0 .267-2.311v-1.124a23.03 23.03 0 0 0-2.453-.443 20.205 20.205 0 0 0-2.499-.163c-1.78 0-3.103.356-3.971 1.068-.869.711-1.305 1.74-1.308 3.083 0 1.245.327 2.188.982 2.827.655.638 1.586.96 2.795.963Zm21.44 2.896a1.665 1.665 0 0 1-1.028-.267 2.072 2.072 0 0 1-.56-1.051l-6.26-20.648a4.805 4.805 0 0 1-.232-1.067.577.577 0 0 1 .654-.654h2.616c.37-.032.739.062 1.049.267.268.295.453.657.534 1.049l4.484 17.66 4.162-17.655c.125-.534.296-.878.515-1.05a1.75 1.75 0 0 1 1.067-.266h2.15c.375-.027.749.066 1.067.267.215.178.386.528.513 1.049l4.204 17.884 4.626-17.884c.08-.392.264-.754.534-1.05.31-.204.68-.298 1.051-.266h2.475a.576.576 0 0 1 .654.654c-.002.14-.018.281-.046.42-.05.22-.112.439-.186.653L62.82 35.076a2.112 2.112 0 0 1-.56 1.052 1.666 1.666 0 0 1-1.028.267h-2.29a1.636 1.636 0 0 1-1.068-.28 2.023 2.023 0 0 1-.516-1.068l-4.156-17.188-4.11 17.188c-.062.4-.241.771-.516 1.068-.313.213-.69.312-1.067.28l-2.285-.01Zm34.287.702a18.188 18.188 0 0 1-4.11-.467 11.946 11.946 0 0 1-3.084-1.068 1.548 1.548 0 0 1-.99-1.513v-1.335c0-.558.2-.838.606-.838.168.002.335.033.491.094.171.061.398.154.678.266a13.94 13.94 0 0 0 2.937.935c1.044.217 2.109.327 3.176.328 1.682 0 2.982-.295 3.9-.886a2.835 2.835 0 0 0 1.38-2.523 2.574 2.574 0 0 0-.726-1.868c-.482-.498-1.377-.966-2.685-1.402l-3.876-1.214c-1.958-.625-3.381-1.529-4.271-2.712a6.324 6.324 0 0 1-1.335-3.876 5.932 5.932 0 0 1 .724-2.966 7.209 7.209 0 0 1 1.913-2.197 8.508 8.508 0 0 1 2.782-1.377A11.906 11.906 0 0 1 80.385 12c.601.001 1.201.04 1.797.117.608.079 1.185.18 1.73.305.533.122 1.051.267 1.518.419.387.123.762.28 1.121.467.31.161.582.384.801.654.17.264.251.575.235.889v1.26c0 .56-.203.84-.609.84a2.852 2.852 0 0 1-1.027-.325 12.397 12.397 0 0 0-5.139-1.028c-1.526 0-2.71.248-3.55.745-.84.497-1.26 1.291-1.26 2.384a2.539 2.539 0 0 0 .801 1.892c.534.513 1.513 1.003 2.936 1.471l3.783 1.215c1.93.624 3.309 1.481 4.134 2.57a6.027 6.027 0 0 1 1.24 3.737 6.75 6.75 0 0 1-.703 3.105 7.056 7.056 0 0 1-1.938 2.36 8.711 8.711 0 0 1-2.965 1.494c-1.228.353-2.5.526-3.778.515Z"/><path fill="#F90" fill-rule="evenodd" d="M84.563 50.067C75.773 56.551 63.033 60 52.06 60c-15.376 0-29.224-5.683-39.701-15.146-.825-.742-.091-1.756.9-1.182 11.304 6.58 25.286 10.54 39.724 10.54a79.014 79.014 0 0 0 30.303-6.2c1.484-.627 2.725.974 1.278 2.055Z" clip-rule="evenodd"/><path fill="#F90" fill-rule="evenodd" d="M88.22 45.89c-1.126-1.44-7.431-.681-10.263-.342-.86.104-.993-.646-.22-1.19 5.032-3.535 13.275-2.512 14.234-1.335.958 1.177-.254 9.457-4.968 13.4-.726.608-1.417.283-1.094-.518 1.06-2.648 3.435-8.574 2.311-10.015Z" clip-rule="evenodd"/></g><defs><clipPath id="a"><path fill="#fff" d="M12 12h80.275v48H12z"/></clipPath></defs></svg>